<svg xmlns="http://www.w3.org/2000/svg" xmlns:xlink="http://www.w3.org/1999/xlink" version="1.1" width="1080" height="1080" viewBox="0 0 1080 1080" xml:space="preserve">
<defs>
</defs>
<rect x="0" y="0" width="100%" height="100%" fill="#00d3ff"/>
<g transform="matrix(0.076 0 0 -0.076 540.1773 540.1953)" id="842361">
<path style="stroke: none; stroke-width: 1; stroke-dasharray: none; stroke-linecap: butt; stroke-dashoffset: 0; stroke-linejoin: miter; stroke-miterlimit: 4; is-custom-font: none; font-file-url: none; fill: rgb(255,255,255); fill-rule: nonzero; opacity: 1;" vector-effect="non-scaling-stroke" transform=" translate(-5813.5, -6401.6998)" d="M 11310 12729 c -768 -182 -1161 -272 -1985 -454 c -1007 -223 -3701 -821 -4680 -1039 c -357 -80 -687 -157 -733 -172 c -208 -67 -338 -200 -399 -409 c -17 -57 -18 -268 -21 -3991 l -2 -3932 l -75 38 c -89 45 -289 112 -400 135 c -480 98 -1032 38 -1560 -170 c -367 -145 -704 -362 -960 -619 c -237 -238 -389 -489 -462 -764 c -23 -85 -26 -117 -26 -257 c 0 -184 14 -256 82 -401 c 167 -356 524 -580 1066 -671 c 163 -27 528 -24 720 5 c 714 110 1380 462 1787 945 c 172 203 299 450 348 672 c 8 36 11 947 10 3220 c 0 2175 3 3194 10 3245 c 35 251 161 417 405 535 c 61 30 144 65 186 78 c 97 32 77 28 2279 517 c 1015 225 2226 494 2693 598 l 847 189 l 0 -2698 l 0 -2698 l -88 43 c -472 235 -1158 244 -1807 24 c -763 -259 -1364 -783 -1550 -1352 c -47 -144 -59 -231 -52 -393 c 5 -144 18 -203 70 -331 c 60 -145 225 -340 371 -436 c 217 -143 490 -235 794 -267 c 146 -15 501 -6 642 16 c 985 154 1847 766 2086 1480 c 68 205 64 -104 64 4165 c 0 2496 4 3896 10 3952 c 32 276 128 479 291 615 c 71 58 197 119 282 135 l 67 13 l 0 252 c 0 139 -3 253 -7 252 c -5 0 -141 -32 -303 -70 z" stroke-linecap="round"/>
</g>
</svg>